<svg width="1009" height="268" viewBox="0 0 1009 268" fill="none" xmlns="http://www.w3.org/2000/svg">
<path d="M91.5312 98.1875H99.3438C99.0938 101.167 98.2604 103.823 96.8438 106.156C95.4271 108.469 93.4375 110.292 90.875 111.625C88.3125 112.958 85.1979 113.625 81.5312 113.625C78.7188 113.625 76.1875 113.125 73.9375 112.125C71.6875 111.104 69.7604 109.667 68.1562 107.812C66.5521 105.938 65.3229 103.677 64.4688 101.031C63.6354 98.3854 63.2188 95.4271 63.2188 92.1562V88.375C63.2188 85.1042 63.6458 82.1458 64.5 79.5C65.375 76.8542 66.625 74.5938 68.25 72.7188C69.875 70.8229 71.8229 69.375 74.0938 68.375C76.3854 67.375 78.9583 66.875 81.8125 66.875C85.4375 66.875 88.5 67.5417 91 68.875C93.5 70.2083 95.4375 72.0521 96.8125 74.4062C98.2083 76.7604 99.0625 79.4583 99.375 82.5H91.5625C91.3542 80.5417 90.8958 78.8646 90.1875 77.4688C89.5 76.0729 88.4792 75.0104 87.125 74.2812C85.7708 73.5312 84 73.1562 81.8125 73.1562C80.0208 73.1562 78.4583 73.4896 77.125 74.1562C75.7917 74.8229 74.6771 75.8021 73.7812 77.0938C72.8854 78.3854 72.2083 79.9792 71.75 81.875C71.3125 83.75 71.0938 85.8958 71.0938 88.3125V92.1562C71.0938 94.4479 71.2917 96.5312 71.6875 98.4062C72.1042 100.26 72.7292 101.854 73.5625 103.188C74.4167 104.521 75.5 105.552 76.8125 106.281C78.125 107.01 79.6979 107.375 81.5312 107.375C83.7604 107.375 85.5625 107.021 86.9375 106.312C88.3333 105.604 89.3854 104.573 90.0938 103.219C90.8229 101.844 91.3021 100.167 91.5312 98.1875ZM124.781 106.219V90.0938C124.781 88.8854 124.562 87.8438 124.125 86.9688C123.688 86.0938 123.021 85.4167 122.125 84.9375C121.25 84.4583 120.146 84.2188 118.812 84.2188C117.583 84.2188 116.521 84.4271 115.625 84.8438C114.729 85.2604 114.031 85.8229 113.531 86.5312C113.031 87.2396 112.781 88.0417 112.781 88.9375H105.281C105.281 87.6042 105.604 86.3125 106.25 85.0625C106.896 83.8125 107.833 82.6979 109.062 81.7188C110.292 80.7396 111.76 79.9688 113.469 79.4062C115.177 78.8438 117.094 78.5625 119.219 78.5625C121.76 78.5625 124.01 78.9896 125.969 79.8438C127.948 80.6979 129.5 81.9896 130.625 83.7188C131.771 85.4271 132.344 87.5729 132.344 90.1562V105.188C132.344 106.729 132.448 108.115 132.656 109.344C132.885 110.552 133.208 111.604 133.625 112.5V113H125.906C125.552 112.188 125.271 111.156 125.062 109.906C124.875 108.635 124.781 107.406 124.781 106.219ZM125.875 92.4375L125.938 97.0938H120.531C119.135 97.0938 117.906 97.2292 116.844 97.5C115.781 97.75 114.896 98.125 114.188 98.625C113.479 99.125 112.948 99.7292 112.594 100.438C112.24 101.146 112.062 101.948 112.062 102.844C112.062 103.74 112.271 104.562 112.688 105.312C113.104 106.042 113.708 106.615 114.5 107.031C115.312 107.448 116.292 107.656 117.438 107.656C118.979 107.656 120.323 107.344 121.469 106.719C122.635 106.073 123.552 105.292 124.219 104.375C124.885 103.438 125.24 102.552 125.281 101.719L127.719 105.062C127.469 105.917 127.042 106.833 126.438 107.812C125.833 108.792 125.042 109.729 124.062 110.625C123.104 111.5 121.948 112.219 120.594 112.781C119.26 113.344 117.719 113.625 115.969 113.625C113.76 113.625 111.792 113.188 110.062 112.312C108.333 111.417 106.979 110.219 106 108.719C105.021 107.198 104.531 105.479 104.531 103.562C104.531 101.771 104.865 100.188 105.531 98.8125C106.219 97.4167 107.219 96.25 108.531 95.3125C109.865 94.375 111.49 93.6667 113.406 93.1875C115.323 92.6875 117.51 92.4375 119.969 92.4375H125.875ZM160.844 106V65H168.406V113H161.562L160.844 106ZM138.844 96.4688V95.8125C138.844 93.25 139.146 90.9167 139.75 88.8125C140.354 86.6875 141.229 84.8646 142.375 83.3438C143.521 81.8021 144.917 80.625 146.562 79.8125C148.208 78.9792 150.062 78.5625 152.125 78.5625C154.167 78.5625 155.958 78.9583 157.5 79.75C159.042 80.5417 160.354 81.6771 161.438 83.1562C162.521 84.6146 163.385 86.3646 164.031 88.4062C164.677 90.4271 165.135 92.6771 165.406 95.1562V97.25C165.135 99.6667 164.677 101.875 164.031 103.875C163.385 105.875 162.521 107.604 161.438 109.062C160.354 110.521 159.031 111.646 157.469 112.438C155.927 113.229 154.125 113.625 152.062 113.625C150.021 113.625 148.177 113.198 146.531 112.344C144.906 111.49 143.521 110.292 142.375 108.75C141.229 107.208 140.354 105.396 139.75 103.312C139.146 101.208 138.844 98.9271 138.844 96.4688ZM146.375 95.8125V96.4688C146.375 98.0104 146.51 99.4479 146.781 100.781C147.073 102.115 147.521 103.292 148.125 104.312C148.729 105.312 149.51 106.104 150.469 106.688C151.448 107.25 152.615 107.531 153.969 107.531C155.677 107.531 157.083 107.156 158.188 106.406C159.292 105.656 160.156 104.646 160.781 103.375C161.427 102.083 161.865 100.646 162.094 99.0625V93.4062C161.969 92.1771 161.708 91.0312 161.312 89.9688C160.938 88.9062 160.427 87.9792 159.781 87.1875C159.135 86.375 158.333 85.75 157.375 85.3125C156.438 84.8542 155.323 84.625 154.031 84.625C152.656 84.625 151.49 84.9167 150.531 85.5C149.573 86.0833 148.781 86.8854 148.156 87.9062C147.552 88.9271 147.104 90.1146 146.812 91.4688C146.521 92.8229 146.375 94.2708 146.375 95.8125ZM195.344 106.219V90.0938C195.344 88.8854 195.125 87.8438 194.688 86.9688C194.25 86.0938 193.583 85.4167 192.688 84.9375C191.812 84.4583 190.708 84.2188 189.375 84.2188C188.146 84.2188 187.083 84.4271 186.188 84.8438C185.292 85.2604 184.594 85.8229 184.094 86.5312C183.594 87.2396 183.344 88.0417 183.344 88.9375H175.844C175.844 87.6042 176.167 86.3125 176.812 85.0625C177.458 83.8125 178.396 82.6979 179.625 81.7188C180.854 80.7396 182.323 79.9688 184.031 79.4062C185.74 78.8438 187.656 78.5625 189.781 78.5625C192.323 78.5625 194.573 78.9896 196.531 79.8438C198.51 80.6979 200.062 81.9896 201.188 83.7188C202.333 85.4271 202.906 87.5729 202.906 90.1562V105.188C202.906 106.729 203.01 108.115 203.219 109.344C203.448 110.552 203.771 111.604 204.188 112.5V113H196.469C196.115 112.188 195.833 111.156 195.625 109.906C195.438 108.635 195.344 107.406 195.344 106.219ZM196.438 92.4375L196.5 97.0938H191.094C189.698 97.0938 188.469 97.2292 187.406 97.5C186.344 97.75 185.458 98.125 184.75 98.625C184.042 99.125 183.51 99.7292 183.156 100.438C182.802 101.146 182.625 101.948 182.625 102.844C182.625 103.74 182.833 104.562 183.25 105.312C183.667 106.042 184.271 106.615 185.062 107.031C185.875 107.448 186.854 107.656 188 107.656C189.542 107.656 190.885 107.344 192.031 106.719C193.198 106.073 194.115 105.292 194.781 104.375C195.448 103.438 195.802 102.552 195.844 101.719L198.281 105.062C198.031 105.917 197.604 106.833 197 107.812C196.396 108.792 195.604 109.729 194.625 110.625C193.667 111.5 192.51 112.219 191.156 112.781C189.823 113.344 188.281 113.625 186.531 113.625C184.323 113.625 182.354 113.188 180.625 112.312C178.896 111.417 177.542 110.219 176.562 108.719C175.583 107.198 175.094 105.479 175.094 103.562C175.094 101.771 175.427 100.188 176.094 98.8125C176.781 97.4167 177.781 96.25 179.094 95.3125C180.427 94.375 182.052 93.6667 183.969 93.1875C185.885 92.6875 188.073 92.4375 190.531 92.4375H196.438ZM229.75 103.844C229.75 103.094 229.562 102.417 229.188 101.812C228.812 101.188 228.094 100.625 227.031 100.125C225.99 99.625 224.448 99.1667 222.406 98.75C220.615 98.3542 218.969 97.8854 217.469 97.3438C215.99 96.7812 214.719 96.1042 213.656 95.3125C212.594 94.5208 211.771 93.5833 211.188 92.5C210.604 91.4167 210.312 90.1667 210.312 88.75C210.312 87.375 210.615 86.0729 211.219 84.8438C211.823 83.6146 212.688 82.5312 213.812 81.5938C214.938 80.6562 216.302 79.9167 217.906 79.375C219.531 78.8333 221.344 78.5625 223.344 78.5625C226.177 78.5625 228.604 79.0417 230.625 80C232.667 80.9375 234.229 82.2188 235.312 83.8438C236.396 85.4479 236.938 87.2604 236.938 89.2812H229.406C229.406 88.3854 229.177 87.5521 228.719 86.7812C228.281 85.9896 227.615 85.3542 226.719 84.875C225.823 84.375 224.698 84.125 223.344 84.125C222.052 84.125 220.979 84.3333 220.125 84.75C219.292 85.1458 218.667 85.6667 218.25 86.3125C217.854 86.9583 217.656 87.6667 217.656 88.4375C217.656 89 217.76 89.5104 217.969 89.9688C218.198 90.4062 218.573 90.8125 219.094 91.1875C219.615 91.5417 220.323 91.875 221.219 92.1875C222.135 92.5 223.281 92.8021 224.656 93.0938C227.24 93.6354 229.458 94.3333 231.312 95.1875C233.188 96.0208 234.625 97.1042 235.625 98.4375C236.625 99.75 237.125 101.417 237.125 103.438C237.125 104.938 236.802 106.312 236.156 107.562C235.531 108.792 234.615 109.865 233.406 110.781C232.198 111.677 230.75 112.375 229.062 112.875C227.396 113.375 225.521 113.625 223.438 113.625C220.375 113.625 217.781 113.083 215.656 112C213.531 110.896 211.917 109.49 210.812 107.781C209.729 106.052 209.188 104.26 209.188 102.406H216.469C216.552 103.802 216.938 104.917 217.625 105.75C218.333 106.562 219.208 107.156 220.25 107.531C221.312 107.885 222.406 108.062 223.531 108.062C224.885 108.062 226.021 107.885 226.938 107.531C227.854 107.156 228.552 106.656 229.031 106.031C229.51 105.385 229.75 104.656 229.75 103.844ZM259.219 79.1875V84.6875H240.156V79.1875H259.219ZM245.656 70.9062H253.188V103.656C253.188 104.698 253.333 105.5 253.625 106.062C253.938 106.604 254.365 106.969 254.906 107.156C255.448 107.344 256.083 107.438 256.812 107.438C257.333 107.438 257.833 107.406 258.312 107.344C258.792 107.281 259.177 107.219 259.469 107.156L259.5 112.906C258.875 113.094 258.146 113.26 257.312 113.406C256.5 113.552 255.562 113.625 254.5 113.625C252.771 113.625 251.24 113.323 249.906 112.719C248.573 112.094 247.531 111.083 246.781 109.688C246.031 108.292 245.656 106.438 245.656 104.125V70.9062ZM272.594 85.625V113H265.062V79.1875H272.25L272.594 85.625ZM282.938 78.9688L282.875 85.9688C282.417 85.8854 281.917 85.8229 281.375 85.7812C280.854 85.7396 280.333 85.7188 279.812 85.7188C278.521 85.7188 277.385 85.9062 276.406 86.2812C275.427 86.6354 274.604 87.1562 273.938 87.8438C273.292 88.5104 272.792 89.3229 272.438 90.2812C272.083 91.2396 271.875 92.3125 271.812 93.5L270.094 93.625C270.094 91.5 270.302 89.5312 270.719 87.7188C271.135 85.9062 271.76 84.3125 272.594 82.9375C273.448 81.5625 274.51 80.4896 275.781 79.7188C277.073 78.9479 278.562 78.5625 280.25 78.5625C280.708 78.5625 281.198 78.6042 281.719 78.6875C282.26 78.7708 282.667 78.8646 282.938 78.9688ZM301.938 113.625C299.438 113.625 297.177 113.219 295.156 112.406C293.156 111.573 291.448 110.417 290.031 108.938C288.635 107.458 287.562 105.719 286.812 103.719C286.062 101.719 285.688 99.5625 285.688 97.25V96C285.688 93.3542 286.073 90.9583 286.844 88.8125C287.615 86.6667 288.688 84.8333 290.062 83.3125C291.438 81.7708 293.062 80.5938 294.938 79.7812C296.812 78.9688 298.844 78.5625 301.031 78.5625C303.448 78.5625 305.562 78.9688 307.375 79.7812C309.188 80.5938 310.688 81.7396 311.875 83.2188C313.083 84.6771 313.979 86.4167 314.562 88.4375C315.167 90.4583 315.469 92.6875 315.469 95.125V98.3438H289.344V92.9375H308.031V92.3438C307.99 90.9896 307.719 89.7188 307.219 88.5312C306.74 87.3438 306 86.3854 305 85.6562C304 84.9271 302.667 84.5625 301 84.5625C299.75 84.5625 298.635 84.8333 297.656 85.375C296.698 85.8958 295.896 86.6562 295.25 87.6562C294.604 88.6562 294.104 89.8646 293.75 91.2812C293.417 92.6771 293.25 94.25 293.25 96V97.25C293.25 98.7292 293.448 100.104 293.844 101.375C294.26 102.625 294.865 103.719 295.656 104.656C296.448 105.594 297.406 106.333 298.531 106.875C299.656 107.396 300.938 107.656 302.375 107.656C304.188 107.656 305.802 107.292 307.219 106.562C308.635 105.833 309.865 104.802 310.906 103.469L314.875 107.312C314.146 108.375 313.198 109.396 312.031 110.375C310.865 111.333 309.438 112.115 307.75 112.719C306.083 113.323 304.146 113.625 301.938 113.625ZM336.5 90.5625V96.5625H319.969V90.5625H336.5ZM362.062 103.844C362.062 103.094 361.875 102.417 361.5 101.812C361.125 101.188 360.406 100.625 359.344 100.125C358.302 99.625 356.76 99.1667 354.719 98.75C352.927 98.3542 351.281 97.8854 349.781 97.3438C348.302 96.7812 347.031 96.1042 345.969 95.3125C344.906 94.5208 344.083 93.5833 343.5 92.5C342.917 91.4167 342.625 90.1667 342.625 88.75C342.625 87.375 342.927 86.0729 343.531 84.8438C344.135 83.6146 345 82.5312 346.125 81.5938C347.25 80.6562 348.615 79.9167 350.219 79.375C351.844 78.8333 353.656 78.5625 355.656 78.5625C358.49 78.5625 360.917 79.0417 362.938 80C364.979 80.9375 366.542 82.2188 367.625 83.8438C368.708 85.4479 369.25 87.2604 369.25 89.2812H361.719C361.719 88.3854 361.49 87.5521 361.031 86.7812C360.594 85.9896 359.927 85.3542 359.031 84.875C358.135 84.375 357.01 84.125 355.656 84.125C354.365 84.125 353.292 84.3333 352.438 84.75C351.604 85.1458 350.979 85.6667 350.562 86.3125C350.167 86.9583 349.969 87.6667 349.969 88.4375C349.969 89 350.073 89.5104 350.281 89.9688C350.51 90.4062 350.885 90.8125 351.406 91.1875C351.927 91.5417 352.635 91.875 353.531 92.1875C354.448 92.5 355.594 92.8021 356.969 93.0938C359.552 93.6354 361.771 94.3333 363.625 95.1875C365.5 96.0208 366.938 97.1042 367.938 98.4375C368.938 99.75 369.438 101.417 369.438 103.438C369.438 104.938 369.115 106.312 368.469 107.562C367.844 108.792 366.927 109.865 365.719 110.781C364.51 111.677 363.062 112.375 361.375 112.875C359.708 113.375 357.833 113.625 355.75 113.625C352.688 113.625 350.094 113.083 347.969 112C345.844 110.896 344.229 109.49 343.125 107.781C342.042 106.052 341.5 104.26 341.5 102.406H348.781C348.865 103.802 349.25 104.917 349.938 105.75C350.646 106.562 351.521 107.156 352.562 107.531C353.625 107.885 354.719 108.062 355.844 108.062C357.198 108.062 358.333 107.885 359.25 107.531C360.167 107.156 360.865 106.656 361.344 106.031C361.823 105.385 362.062 104.656 362.062 103.844ZM390.938 113.625C388.438 113.625 386.177 113.219 384.156 112.406C382.156 111.573 380.448 110.417 379.031 108.938C377.635 107.458 376.562 105.719 375.812 103.719C375.062 101.719 374.688 99.5625 374.688 97.25V96C374.688 93.3542 375.073 90.9583 375.844 88.8125C376.615 86.6667 377.688 84.8333 379.062 83.3125C380.438 81.7708 382.062 80.5938 383.938 79.7812C385.812 78.9688 387.844 78.5625 390.031 78.5625C392.448 78.5625 394.562 78.9688 396.375 79.7812C398.188 80.5938 399.688 81.7396 400.875 83.2188C402.083 84.6771 402.979 86.4167 403.562 88.4375C404.167 90.4583 404.469 92.6875 404.469 95.125V98.3438H378.344V92.9375H397.031V92.3438C396.99 90.9896 396.719 89.7188 396.219 88.5312C395.74 87.3438 395 86.3854 394 85.6562C393 84.9271 391.667 84.5625 390 84.5625C388.75 84.5625 387.635 84.8333 386.656 85.375C385.698 85.8958 384.896 86.6562 384.25 87.6562C383.604 88.6562 383.104 89.8646 382.75 91.2812C382.417 92.6771 382.25 94.25 382.25 96V97.25C382.25 98.7292 382.448 100.104 382.844 101.375C383.26 102.625 383.865 103.719 384.656 104.656C385.448 105.594 386.406 106.333 387.531 106.875C388.656 107.396 389.938 107.656 391.375 107.656C393.188 107.656 394.802 107.292 396.219 106.562C397.635 105.833 398.865 104.802 399.906 103.469L403.875 107.312C403.146 108.375 402.198 109.396 401.031 110.375C399.865 111.333 398.438 112.115 396.75 112.719C395.083 113.323 393.146 113.625 390.938 113.625ZM445.344 106.219V90.0938C445.344 88.8854 445.125 87.8438 444.688 86.9688C444.25 86.0938 443.583 85.4167 442.688 84.9375C441.812 84.4583 440.708 84.2188 439.375 84.2188C438.146 84.2188 437.083 84.4271 436.188 84.8438C435.292 85.2604 434.594 85.8229 434.094 86.5312C433.594 87.2396 433.344 88.0417 433.344 88.9375H425.844C425.844 87.6042 426.167 86.3125 426.812 85.0625C427.458 83.8125 428.396 82.6979 429.625 81.7188C430.854 80.7396 432.323 79.9688 434.031 79.4062C435.74 78.8438 437.656 78.5625 439.781 78.5625C442.323 78.5625 444.573 78.9896 446.531 79.8438C448.51 80.6979 450.062 81.9896 451.188 83.7188C452.333 85.4271 452.906 87.5729 452.906 90.1562V105.188C452.906 106.729 453.01 108.115 453.219 109.344C453.448 110.552 453.771 111.604 454.188 112.5V113H446.469C446.115 112.188 445.833 111.156 445.625 109.906C445.438 108.635 445.344 107.406 445.344 106.219ZM446.438 92.4375L446.5 97.0938H441.094C439.698 97.0938 438.469 97.2292 437.406 97.5C436.344 97.75 435.458 98.125 434.75 98.625C434.042 99.125 433.51 99.7292 433.156 100.438C432.802 101.146 432.625 101.948 432.625 102.844C432.625 103.74 432.833 104.562 433.25 105.312C433.667 106.042 434.271 106.615 435.062 107.031C435.875 107.448 436.854 107.656 438 107.656C439.542 107.656 440.885 107.344 442.031 106.719C443.198 106.073 444.115 105.292 444.781 104.375C445.448 103.438 445.802 102.552 445.844 101.719L448.281 105.062C448.031 105.917 447.604 106.833 447 107.812C446.396 108.792 445.604 109.729 444.625 110.625C443.667 111.5 442.51 112.219 441.156 112.781C439.823 113.344 438.281 113.625 436.531 113.625C434.323 113.625 432.354 113.188 430.625 112.312C428.896 111.417 427.542 110.219 426.562 108.719C425.583 107.198 425.094 105.479 425.094 103.562C425.094 101.771 425.427 100.188 426.094 98.8125C426.781 97.4167 427.781 96.25 429.094 95.3125C430.427 94.375 432.052 93.6667 433.969 93.1875C435.885 92.6875 438.073 92.4375 440.531 92.4375H446.438ZM459.344 96.4688V95.75C459.344 93.3125 459.698 91.0521 460.406 88.9688C461.115 86.8646 462.135 85.0417 463.469 83.5C464.823 81.9375 466.469 80.7292 468.406 79.875C470.365 79 472.573 78.5625 475.031 78.5625C477.51 78.5625 479.719 79 481.656 79.875C483.615 80.7292 485.271 81.9375 486.625 83.5C487.979 85.0417 489.01 86.8646 489.719 88.9688C490.427 91.0521 490.781 93.3125 490.781 95.75V96.4688C490.781 98.9062 490.427 101.167 489.719 103.25C489.01 105.333 487.979 107.156 486.625 108.719C485.271 110.26 483.625 111.469 481.688 112.344C479.75 113.198 477.552 113.625 475.094 113.625C472.615 113.625 470.396 113.198 468.438 112.344C466.5 111.469 464.854 110.26 463.5 108.719C462.146 107.156 461.115 105.333 460.406 103.25C459.698 101.167 459.344 98.9062 459.344 96.4688ZM466.875 95.75V96.4688C466.875 97.9896 467.031 99.4271 467.344 100.781C467.656 102.135 468.146 103.323 468.812 104.344C469.479 105.365 470.333 106.167 471.375 106.75C472.417 107.333 473.656 107.625 475.094 107.625C476.49 107.625 477.698 107.333 478.719 106.75C479.76 106.167 480.615 105.365 481.281 104.344C481.948 103.323 482.438 102.135 482.75 100.781C483.083 99.4271 483.25 97.9896 483.25 96.4688V95.75C483.25 94.25 483.083 92.8333 482.75 91.5C482.438 90.1458 481.938 88.9479 481.25 87.9062C480.583 86.8646 479.729 86.0521 478.688 85.4688C477.667 84.8646 476.448 84.5625 475.031 84.5625C473.615 84.5625 472.385 84.8646 471.344 85.4688C470.323 86.0521 469.479 86.8646 468.812 87.9062C468.146 88.9479 467.656 90.1458 467.344 91.5C467.031 92.8333 466.875 94.25 466.875 95.75ZM522.719 113H515.156V77C515.156 74.2708 515.698 71.9688 516.781 70.0938C517.885 68.2188 519.458 66.7917 521.5 65.8125C523.562 64.8333 526.01 64.3438 528.844 64.3438C530.51 64.3438 532.115 64.5208 533.656 64.875C535.219 65.2292 536.833 65.6771 538.5 66.2188L537.344 72.3438C536.281 71.9896 535.104 71.6562 533.812 71.3438C532.521 71.0104 531.031 70.8438 529.344 70.8438C527.073 70.8438 525.396 71.3646 524.312 72.4062C523.25 73.4271 522.719 74.9583 522.719 77V113ZM529.5 79.1875V84.6875H509.969V79.1875H529.5ZM542.062 79.1875V113H534.531V79.1875H542.062ZM557.938 86.4062V113H550.406V79.1875H557.5L557.938 86.4062ZM556.594 94.8438L554.156 94.8125C554.177 92.4167 554.51 90.2188 555.156 88.2188C555.823 86.2188 556.74 84.5 557.906 83.0625C559.094 81.625 560.51 80.5208 562.156 79.75C563.802 78.9583 565.635 78.5625 567.656 78.5625C569.281 78.5625 570.75 78.7917 572.062 79.25C573.396 79.6875 574.531 80.4062 575.469 81.4062C576.427 82.4062 577.156 83.7083 577.656 85.3125C578.156 86.8958 578.406 88.8438 578.406 91.1562V113H570.844V91.125C570.844 89.5 570.604 88.2188 570.125 87.2812C569.667 86.3229 568.99 85.6458 568.094 85.25C567.219 84.8333 566.125 84.625 564.812 84.625C563.521 84.625 562.365 84.8958 561.344 85.4375C560.323 85.9792 559.458 86.7188 558.75 87.6562C558.062 88.5938 557.531 89.6771 557.156 90.9062C556.781 92.1354 556.594 93.4479 556.594 94.8438ZM605.156 106.219V90.0938C605.156 88.8854 604.938 87.8438 604.5 86.9688C604.062 86.0938 603.396 85.4167 602.5 84.9375C601.625 84.4583 600.521 84.2188 599.188 84.2188C597.958 84.2188 596.896 84.4271 596 84.8438C595.104 85.2604 594.406 85.8229 593.906 86.5312C593.406 87.2396 593.156 88.0417 593.156 88.9375H585.656C585.656 87.6042 585.979 86.3125 586.625 85.0625C587.271 83.8125 588.208 82.6979 589.438 81.7188C590.667 80.7396 592.135 79.9688 593.844 79.4062C595.552 78.8438 597.469 78.5625 599.594 78.5625C602.135 78.5625 604.385 78.9896 606.344 79.8438C608.323 80.6979 609.875 81.9896 611 83.7188C612.146 85.4271 612.719 87.5729 612.719 90.1562V105.188C612.719 106.729 612.823 108.115 613.031 109.344C613.26 110.552 613.583 111.604 614 112.5V113H606.281C605.927 112.188 605.646 111.156 605.438 109.906C605.25 108.635 605.156 107.406 605.156 106.219ZM606.25 92.4375L606.312 97.0938H600.906C599.51 97.0938 598.281 97.2292 597.219 97.5C596.156 97.75 595.271 98.125 594.562 98.625C593.854 99.125 593.323 99.7292 592.969 100.438C592.615 101.146 592.438 101.948 592.438 102.844C592.438 103.74 592.646 104.562 593.062 105.312C593.479 106.042 594.083 106.615 594.875 107.031C595.688 107.448 596.667 107.656 597.812 107.656C599.354 107.656 600.698 107.344 601.844 106.719C603.01 106.073 603.927 105.292 604.594 104.375C605.26 103.438 605.615 102.552 605.656 101.719L608.094 105.062C607.844 105.917 607.417 106.833 606.812 107.812C606.208 108.792 605.417 109.729 604.438 110.625C603.479 111.5 602.323 112.219 600.969 112.781C599.635 113.344 598.094 113.625 596.344 113.625C594.135 113.625 592.167 113.188 590.438 112.312C588.708 111.417 587.354 110.219 586.375 108.719C585.396 107.198 584.906 105.479 584.906 103.562C584.906 101.771 585.24 100.188 585.906 98.8125C586.594 97.4167 587.594 96.25 588.906 95.3125C590.24 94.375 591.865 93.6667 593.781 93.1875C595.698 92.6875 597.885 92.4375 600.344 92.4375H606.25ZM628.656 65V113H621.094V65H628.656ZM673.469 106V65H681.031V113H674.188L673.469 106ZM651.469 96.4688V95.8125C651.469 93.25 651.771 90.9167 652.375 88.8125C652.979 86.6875 653.854 84.8646 655 83.3438C656.146 81.8021 657.542 80.625 659.188 79.8125C660.833 78.9792 662.688 78.5625 664.75 78.5625C666.792 78.5625 668.583 78.9583 670.125 79.75C671.667 80.5417 672.979 81.6771 674.062 83.1562C675.146 84.6146 676.01 86.3646 676.656 88.4062C677.302 90.4271 677.76 92.6771 678.031 95.1562V97.25C677.76 99.6667 677.302 101.875 676.656 103.875C676.01 105.875 675.146 107.604 674.062 109.062C672.979 110.521 671.656 111.646 670.094 112.438C668.552 113.229 666.75 113.625 664.688 113.625C662.646 113.625 660.802 113.198 659.156 112.344C657.531 111.49 656.146 110.292 655 108.75C653.854 107.208 652.979 105.396 652.375 103.312C651.771 101.208 651.469 98.9271 651.469 96.4688ZM659 95.8125V96.4688C659 98.0104 659.135 99.4479 659.406 100.781C659.698 102.115 660.146 103.292 660.75 104.312C661.354 105.312 662.135 106.104 663.094 106.688C664.073 107.25 665.24 107.531 666.594 107.531C668.302 107.531 669.708 107.156 670.812 106.406C671.917 105.656 672.781 104.646 673.406 103.375C674.052 102.083 674.49 100.646 674.719 99.0625V93.4062C674.594 92.1771 674.333 91.0312 673.938 89.9688C673.562 88.9062 673.052 87.9792 672.406 87.1875C671.76 86.375 670.958 85.75 670 85.3125C669.062 84.8542 667.948 84.625 666.656 84.625C665.281 84.625 664.115 84.9167 663.156 85.5C662.198 86.0833 661.406 86.8854 660.781 87.9062C660.177 88.9271 659.729 90.1146 659.438 91.4688C659.146 92.8229 659 94.2708 659 95.8125ZM707.969 106.219V90.0938C707.969 88.8854 707.75 87.8438 707.312 86.9688C706.875 86.0938 706.208 85.4167 705.312 84.9375C704.438 84.4583 703.333 84.2188 702 84.2188C700.771 84.2188 699.708 84.4271 698.812 84.8438C697.917 85.2604 697.219 85.8229 696.719 86.5312C696.219 87.2396 695.969 88.0417 695.969 88.9375H688.469C688.469 87.6042 688.792 86.3125 689.438 85.0625C690.083 83.8125 691.021 82.6979 692.25 81.7188C693.479 80.7396 694.948 79.9688 696.656 79.4062C698.365 78.8438 700.281 78.5625 702.406 78.5625C704.948 78.5625 707.198 78.9896 709.156 79.8438C711.135 80.6979 712.688 81.9896 713.812 83.7188C714.958 85.4271 715.531 87.5729 715.531 90.1562V105.188C715.531 106.729 715.635 108.115 715.844 109.344C716.073 110.552 716.396 111.604 716.812 112.5V113H709.094C708.74 112.188 708.458 111.156 708.25 109.906C708.062 108.635 707.969 107.406 707.969 106.219ZM709.062 92.4375L709.125 97.0938H703.719C702.323 97.0938 701.094 97.2292 700.031 97.5C698.969 97.75 698.083 98.125 697.375 98.625C696.667 99.125 696.135 99.7292 695.781 100.438C695.427 101.146 695.25 101.948 695.25 102.844C695.25 103.74 695.458 104.562 695.875 105.312C696.292 106.042 696.896 106.615 697.688 107.031C698.5 107.448 699.479 107.656 700.625 107.656C702.167 107.656 703.51 107.344 704.656 106.719C705.823 106.073 706.74 105.292 707.406 104.375C708.073 103.438 708.427 102.552 708.469 101.719L710.906 105.062C710.656 105.917 710.229 106.833 709.625 107.812C709.021 108.792 708.229 109.729 707.25 110.625C706.292 111.5 705.135 112.219 703.781 112.781C702.448 113.344 700.906 113.625 699.156 113.625C696.948 113.625 694.979 113.188 693.25 112.312C691.521 111.417 690.167 110.219 689.188 108.719C688.208 107.198 687.719 105.479 687.719 103.562C687.719 101.771 688.052 100.188 688.719 98.8125C689.406 97.4167 690.406 96.25 691.719 95.3125C693.052 94.375 694.677 93.6667 696.594 93.1875C698.51 92.6875 700.698 92.4375 703.156 92.4375H709.062ZM753.156 107.625C754.385 107.625 755.49 107.385 756.469 106.906C757.469 106.406 758.271 105.719 758.875 104.844C759.5 103.969 759.844 102.958 759.906 101.812H767C766.958 104 766.312 105.99 765.062 107.781C763.812 109.573 762.156 111 760.094 112.062C758.031 113.104 755.75 113.625 753.25 113.625C750.667 113.625 748.417 113.188 746.5 112.312C744.583 111.417 742.99 110.188 741.719 108.625C740.448 107.062 739.49 105.26 738.844 103.219C738.219 101.177 737.906 98.9896 737.906 96.6562V95.5625C737.906 93.2292 738.219 91.0417 738.844 89C739.49 86.9375 740.448 85.125 741.719 83.5625C742.99 82 744.583 80.7812 746.5 79.9062C748.417 79.0104 750.656 78.5625 753.219 78.5625C755.927 78.5625 758.302 79.1042 760.344 80.1875C762.385 81.25 763.99 82.7396 765.156 84.6562C766.344 86.5521 766.958 88.7604 767 91.2812H759.906C759.844 90.0312 759.531 88.9062 758.969 87.9062C758.427 86.8854 757.656 86.0729 756.656 85.4688C755.677 84.8646 754.5 84.5625 753.125 84.5625C751.604 84.5625 750.344 84.875 749.344 85.5C748.344 86.1042 747.562 86.9375 747 88C746.438 89.0417 746.031 90.2188 745.781 91.5312C745.552 92.8229 745.438 94.1667 745.438 95.5625V96.6562C745.438 98.0521 745.552 99.4062 745.781 100.719C746.01 102.031 746.406 103.208 746.969 104.25C747.552 105.271 748.344 106.094 749.344 106.719C750.344 107.323 751.615 107.625 753.156 107.625ZM771.344 96.4688V95.75C771.344 93.3125 771.698 91.0521 772.406 88.9688C773.115 86.8646 774.135 85.0417 775.469 83.5C776.823 81.9375 778.469 80.7292 780.406 79.875C782.365 79 784.573 78.5625 787.031 78.5625C789.51 78.5625 791.719 79 793.656 79.875C795.615 80.7292 797.271 81.9375 798.625 83.5C799.979 85.0417 801.01 86.8646 801.719 88.9688C802.427 91.0521 802.781 93.3125 802.781 95.75V96.4688C802.781 98.9062 802.427 101.167 801.719 103.25C801.01 105.333 799.979 107.156 798.625 108.719C797.271 110.26 795.625 111.469 793.688 112.344C791.75 113.198 789.552 113.625 787.094 113.625C784.615 113.625 782.396 113.198 780.438 112.344C778.5 111.469 776.854 110.26 775.5 108.719C774.146 107.156 773.115 105.333 772.406 103.25C771.698 101.167 771.344 98.9062 771.344 96.4688ZM778.875 95.75V96.4688C778.875 97.9896 779.031 99.4271 779.344 100.781C779.656 102.135 780.146 103.323 780.812 104.344C781.479 105.365 782.333 106.167 783.375 106.75C784.417 107.333 785.656 107.625 787.094 107.625C788.49 107.625 789.698 107.333 790.719 106.75C791.76 106.167 792.615 105.365 793.281 104.344C793.948 103.323 794.438 102.135 794.75 100.781C795.083 99.4271 795.25 97.9896 795.25 96.4688V95.75C795.25 94.25 795.083 92.8333 794.75 91.5C794.438 90.1458 793.938 88.9479 793.25 87.9062C792.583 86.8646 791.729 86.0521 790.688 85.4688C789.667 84.8646 788.448 84.5625 787.031 84.5625C785.615 84.5625 784.385 84.8646 783.344 85.4688C782.323 86.0521 781.479 86.8646 780.812 87.9062C780.146 88.9479 779.656 90.1458 779.344 91.5C779.031 92.8333 778.875 94.25 778.875 95.75ZM816.625 86.0625V113H809.094V79.1875H816.188L816.625 86.0625ZM815.406 94.8438L812.844 94.8125C812.844 92.4792 813.135 90.3229 813.719 88.3438C814.302 86.3646 815.156 84.6458 816.281 83.1875C817.406 81.7083 818.802 80.5729 820.469 79.7812C822.156 78.9688 824.104 78.5625 826.312 78.5625C827.854 78.5625 829.26 78.7917 830.531 79.25C831.823 79.6875 832.938 80.3854 833.875 81.3438C834.833 82.3021 835.562 83.5312 836.062 85.0312C836.583 86.5312 836.844 88.3438 836.844 90.4688V113H829.312V91.125C829.312 89.4792 829.062 88.1875 828.562 87.25C828.083 86.3125 827.385 85.6458 826.469 85.25C825.573 84.8333 824.5 84.625 823.25 84.625C821.833 84.625 820.625 84.8958 819.625 85.4375C818.646 85.9792 817.844 86.7188 817.219 87.6562C816.594 88.5938 816.135 89.6771 815.844 90.9062C815.552 92.1354 815.406 93.4479 815.406 94.8438ZM836.375 92.8438L832.844 93.625C832.844 91.5833 833.125 89.6562 833.688 87.8438C834.271 86.0104 835.115 84.4062 836.219 83.0312C837.344 81.6354 838.729 80.5417 840.375 79.75C842.021 78.9583 843.906 78.5625 846.031 78.5625C847.76 78.5625 849.302 78.8021 850.656 79.2812C852.031 79.7396 853.198 80.4688 854.156 81.4688C855.115 82.4688 855.844 83.7708 856.344 85.375C856.844 86.9583 857.094 88.875 857.094 91.125V113H849.531V91.0938C849.531 89.3854 849.281 88.0625 848.781 87.125C848.302 86.1875 847.615 85.5417 846.719 85.1875C845.823 84.8125 844.75 84.625 843.5 84.625C842.333 84.625 841.302 84.8438 840.406 85.2812C839.531 85.6979 838.792 86.2917 838.188 87.0625C837.583 87.8125 837.125 88.6771 836.812 89.6562C836.521 90.6354 836.375 91.6979 836.375 92.8438ZM872.406 85.6875V126H864.875V79.1875H871.812L872.406 85.6875ZM894.438 95.7812V96.4375C894.438 98.8958 894.146 101.177 893.562 103.281C893 105.365 892.156 107.188 891.031 108.75C889.927 110.292 888.562 111.49 886.938 112.344C885.312 113.198 883.438 113.625 881.312 113.625C879.208 113.625 877.365 113.24 875.781 112.469C874.219 111.677 872.896 110.562 871.812 109.125C870.729 107.688 869.854 106 869.188 104.062C868.542 102.104 868.083 99.9583 867.812 97.625V95.0938C868.083 92.6146 868.542 90.3646 869.188 88.3438C869.854 86.3229 870.729 84.5833 871.812 83.125C872.896 81.6667 874.219 80.5417 875.781 79.75C877.344 78.9583 879.167 78.5625 881.25 78.5625C883.375 78.5625 885.26 78.9792 886.906 79.8125C888.552 80.625 889.938 81.7917 891.062 83.3125C892.188 84.8125 893.031 86.625 893.594 88.75C894.156 90.8542 894.438 93.1979 894.438 95.7812ZM886.906 96.4375V95.7812C886.906 94.2188 886.76 92.7708 886.469 91.4375C886.177 90.0833 885.719 88.8958 885.094 87.875C884.469 86.8542 883.667 86.0625 882.688 85.5C881.729 84.9167 880.573 84.625 879.219 84.625C877.885 84.625 876.74 84.8542 875.781 85.3125C874.823 85.75 874.021 86.3646 873.375 87.1562C872.729 87.9479 872.229 88.875 871.875 89.9375C871.521 90.9792 871.271 92.1146 871.125 93.3438V99.4062C871.375 100.906 871.802 102.281 872.406 103.531C873.01 104.781 873.865 105.781 874.969 106.531C876.094 107.26 877.531 107.625 879.281 107.625C880.635 107.625 881.792 107.333 882.75 106.75C883.708 106.167 884.49 105.365 885.094 104.344C885.719 103.302 886.177 102.104 886.469 100.75C886.76 99.3958 886.906 97.9583 886.906 96.4375ZM908.406 85.625V113H900.875V79.1875H908.062L908.406 85.625ZM918.75 78.9688L918.688 85.9688C918.229 85.8854 917.729 85.8229 917.188 85.7812C916.667 85.7396 916.146 85.7188 915.625 85.7188C914.333 85.7188 913.198 85.9062 912.219 86.2812C911.24 86.6354 910.417 87.1562 909.75 87.8438C909.104 88.5104 908.604 89.3229 908.25 90.2812C907.896 91.2396 907.688 92.3125 907.625 93.5L905.906 93.625C905.906 91.5 906.115 89.5312 906.531 87.7188C906.948 85.9062 907.573 84.3125 908.406 82.9375C909.26 81.5625 910.323 80.4896 911.594 79.7188C912.885 78.9479 914.375 78.5625 916.062 78.5625C916.521 78.5625 917.01 78.6042 917.531 78.6875C918.073 78.7708 918.479 78.8646 918.75 78.9688ZM941.406 106.219V90.0938C941.406 88.8854 941.188 87.8438 940.75 86.9688C940.312 86.0938 939.646 85.4167 938.75 84.9375C937.875 84.4583 936.771 84.2188 935.438 84.2188C934.208 84.2188 933.146 84.4271 932.25 84.8438C931.354 85.2604 930.656 85.8229 930.156 86.5312C929.656 87.2396 929.406 88.0417 929.406 88.9375H921.906C921.906 87.6042 922.229 86.3125 922.875 85.0625C923.521 83.8125 924.458 82.6979 925.688 81.7188C926.917 80.7396 928.385 79.9688 930.094 79.4062C931.802 78.8438 933.719 78.5625 935.844 78.5625C938.385 78.5625 940.635 78.9896 942.594 79.8438C944.573 80.6979 946.125 81.9896 947.25 83.7188C948.396 85.4271 948.969 87.5729 948.969 90.1562V105.188C948.969 106.729 949.073 108.115 949.281 109.344C949.51 110.552 949.833 111.604 950.25 112.5V113H942.531C942.177 112.188 941.896 111.156 941.688 109.906C941.5 108.635 941.406 107.406 941.406 106.219ZM942.5 92.4375L942.562 97.0938H937.156C935.76 97.0938 934.531 97.2292 933.469 97.5C932.406 97.75 931.521 98.125 930.812 98.625C930.104 99.125 929.573 99.7292 929.219 100.438C928.865 101.146 928.688 101.948 928.688 102.844C928.688 103.74 928.896 104.562 929.312 105.312C929.729 106.042 930.333 106.615 931.125 107.031C931.938 107.448 932.917 107.656 934.062 107.656C935.604 107.656 936.948 107.344 938.094 106.719C939.26 106.073 940.177 105.292 940.844 104.375C941.51 103.438 941.865 102.552 941.906 101.719L944.344 105.062C944.094 105.917 943.667 106.833 943.062 107.812C942.458 108.792 941.667 109.729 940.688 110.625C939.729 111.5 938.573 112.219 937.219 112.781C935.885 113.344 934.344 113.625 932.594 113.625C930.385 113.625 928.417 113.188 926.688 112.312C924.958 111.417 923.604 110.219 922.625 108.719C921.646 107.198 921.156 105.479 921.156 103.562C921.156 101.771 921.49 100.188 922.156 98.8125C922.844 97.4167 923.844 96.25 925.156 95.3125C926.49 94.375 928.115 93.6667 930.031 93.1875C931.948 92.6875 934.135 92.4375 936.594 92.4375H942.5ZM117.742 212.703C114.789 212.703 112.141 212.234 109.797 211.297C107.453 210.336 105.461 209.012 103.82 207.324C102.203 205.637 100.961 203.68 100.094 201.453C99.2266 199.203 98.793 196.812 98.793 194.281V192.875C98.793 189.992 99.2031 187.355 100.023 184.965C100.844 182.574 102.016 180.5 103.539 178.742C105.086 176.984 106.961 175.637 109.164 174.699C111.367 173.738 113.852 173.258 116.617 173.258C119.312 173.258 121.703 173.703 123.789 174.594C125.875 175.484 127.621 176.75 129.027 178.391C130.457 180.031 131.535 182 132.262 184.297C132.988 186.57 133.352 189.102 133.352 191.891V196.109H103.117V189.359H123.402V188.586C123.402 187.18 123.145 185.926 122.629 184.824C122.137 183.699 121.387 182.809 120.379 182.152C119.371 181.496 118.082 181.168 116.512 181.168C115.176 181.168 114.027 181.461 113.066 182.047C112.105 182.633 111.32 183.453 110.711 184.508C110.125 185.562 109.68 186.805 109.375 188.234C109.094 189.641 108.953 191.188 108.953 192.875V194.281C108.953 195.805 109.164 197.211 109.586 198.5C110.031 199.789 110.652 200.902 111.449 201.84C112.27 202.777 113.254 203.504 114.402 204.02C115.574 204.535 116.898 204.793 118.375 204.793C120.203 204.793 121.902 204.441 123.473 203.738C125.066 203.012 126.438 201.922 127.586 200.469L132.508 205.812C131.711 206.961 130.621 208.062 129.238 209.117C127.879 210.172 126.238 211.039 124.316 211.719C122.395 212.375 120.203 212.703 117.742 212.703ZM181.129 173.961H190.305V210.734C190.305 214.203 189.531 217.145 187.984 219.559C186.461 221.996 184.328 223.836 181.586 225.078C178.844 226.344 175.656 226.977 172.023 226.977C170.43 226.977 168.742 226.766 166.961 226.344C165.203 225.922 163.516 225.266 161.898 224.375C160.305 223.484 158.969 222.359 157.891 221L162.355 215.023C163.527 216.383 164.887 217.438 166.434 218.188C167.98 218.961 169.691 219.348 171.566 219.348C173.395 219.348 174.941 219.008 176.207 218.328C177.473 217.672 178.445 216.699 179.125 215.41C179.805 214.145 180.145 212.609 180.145 210.805V182.75L181.129 173.961ZM155.535 193.438V192.699C155.535 189.793 155.887 187.156 156.59 184.789C157.316 182.398 158.336 180.348 159.648 178.637C160.984 176.926 162.602 175.602 164.5 174.664C166.398 173.727 168.543 173.258 170.934 173.258C173.465 173.258 175.586 173.727 177.297 174.664C179.008 175.602 180.414 176.938 181.516 178.672C182.617 180.383 183.473 182.41 184.082 184.754C184.715 187.074 185.207 189.617 185.559 192.383V194C185.207 196.648 184.68 199.109 183.977 201.383C183.273 203.656 182.348 205.648 181.199 207.359C180.051 209.047 178.621 210.359 176.91 211.297C175.223 212.234 173.207 212.703 170.863 212.703C168.52 212.703 166.398 212.223 164.5 211.262C162.625 210.301 161.02 208.953 159.684 207.219C158.348 205.484 157.316 203.445 156.59 201.102C155.887 198.758 155.535 196.203 155.535 193.438ZM165.66 192.699V193.438C165.66 195.008 165.812 196.473 166.117 197.832C166.422 199.191 166.891 200.398 167.523 201.453C168.18 202.484 168.988 203.293 169.949 203.879C170.934 204.441 172.094 204.723 173.43 204.723C175.281 204.723 176.793 204.336 177.965 203.562C179.137 202.766 180.016 201.676 180.602 200.293C181.188 198.91 181.527 197.316 181.621 195.512V190.906C181.574 189.43 181.375 188.105 181.023 186.934C180.672 185.738 180.18 184.719 179.547 183.875C178.914 183.031 178.094 182.375 177.086 181.906C176.078 181.438 174.883 181.203 173.5 181.203C172.164 181.203 171.004 181.508 170.02 182.117C169.059 182.703 168.25 183.512 167.594 184.543C166.961 185.574 166.48 186.793 166.152 188.199C165.824 189.582 165.66 191.082 165.66 192.699ZM218.711 203.422V186.477C218.711 185.258 218.512 184.215 218.113 183.348C217.715 182.457 217.094 181.766 216.25 181.273C215.43 180.781 214.363 180.535 213.051 180.535C211.926 180.535 210.953 180.734 210.133 181.133C209.312 181.508 208.68 182.059 208.234 182.785C207.789 183.488 207.566 184.32 207.566 185.281H197.441C197.441 183.664 197.816 182.129 198.566 180.676C199.316 179.223 200.406 177.945 201.836 176.844C203.266 175.719 204.965 174.84 206.934 174.207C208.926 173.574 211.152 173.258 213.613 173.258C216.566 173.258 219.191 173.75 221.488 174.734C223.785 175.719 225.59 177.195 226.902 179.164C228.238 181.133 228.906 183.594 228.906 186.547V202.824C228.906 204.91 229.035 206.621 229.293 207.957C229.551 209.27 229.926 210.418 230.418 211.402V212H220.188C219.695 210.969 219.32 209.68 219.062 208.133C218.828 206.562 218.711 204.992 218.711 203.422ZM220.047 188.832L220.117 194.562H214.457C213.121 194.562 211.961 194.715 210.977 195.02C209.992 195.324 209.184 195.758 208.551 196.32C207.918 196.859 207.449 197.492 207.145 198.219C206.863 198.945 206.723 199.742 206.723 200.609C206.723 201.477 206.922 202.262 207.32 202.965C207.719 203.645 208.293 204.184 209.043 204.582C209.793 204.957 210.672 205.145 211.68 205.145C213.203 205.145 214.527 204.84 215.652 204.23C216.777 203.621 217.645 202.871 218.254 201.98C218.887 201.09 219.215 200.246 219.238 199.449L221.91 203.738C221.535 204.699 221.02 205.695 220.363 206.727C219.73 207.758 218.922 208.73 217.938 209.645C216.953 210.535 215.77 211.273 214.387 211.859C213.004 212.422 211.363 212.703 209.465 212.703C207.051 212.703 204.859 212.223 202.891 211.262C200.945 210.277 199.398 208.93 198.25 207.219C197.125 205.484 196.562 203.516 196.562 201.312C196.562 199.32 196.938 197.551 197.688 196.004C198.438 194.457 199.539 193.156 200.992 192.102C202.469 191.023 204.309 190.215 206.512 189.676C208.715 189.113 211.27 188.832 214.176 188.832H220.047ZM246.625 182.082V212H236.5V173.961H245.992L246.625 182.082ZM245.148 191.645H242.406C242.406 188.832 242.77 186.301 243.496 184.051C244.223 181.777 245.242 179.844 246.555 178.25C247.867 176.633 249.426 175.402 251.23 174.559C253.059 173.691 255.098 173.258 257.348 173.258C259.129 173.258 260.758 173.516 262.234 174.031C263.711 174.547 264.977 175.367 266.031 176.492C267.109 177.617 267.93 179.105 268.492 180.957C269.078 182.809 269.371 185.07 269.371 187.742V212H259.176V187.707C259.176 186.02 258.941 184.707 258.473 183.77C258.004 182.832 257.312 182.176 256.398 181.801C255.508 181.402 254.406 181.203 253.094 181.203C251.734 181.203 250.551 181.473 249.543 182.012C248.559 182.551 247.738 183.301 247.082 184.262C246.449 185.199 245.969 186.301 245.641 187.566C245.312 188.832 245.148 190.191 245.148 191.645ZM286.949 158V212H276.824V158H286.949ZM285.508 191.645H282.73C282.754 188.996 283.105 186.559 283.785 184.332C284.465 182.082 285.438 180.137 286.703 178.496C287.969 176.832 289.48 175.543 291.238 174.629C293.02 173.715 294.988 173.258 297.145 173.258C299.02 173.258 300.719 173.527 302.242 174.066C303.789 174.582 305.113 175.426 306.215 176.598C307.34 177.746 308.207 179.258 308.816 181.133C309.426 183.008 309.73 185.281 309.73 187.953V212H299.535V187.883C299.535 186.195 299.289 184.871 298.797 183.91C298.328 182.926 297.637 182.234 296.723 181.836C295.832 181.414 294.73 181.203 293.418 181.203C291.965 181.203 290.723 181.473 289.691 182.012C288.684 182.551 287.875 183.301 287.266 184.262C286.656 185.199 286.211 186.301 285.93 187.566C285.648 188.832 285.508 190.191 285.508 191.645ZM334.938 212.703C331.984 212.703 329.336 212.234 326.992 211.297C324.648 210.336 322.656 209.012 321.016 207.324C319.398 205.637 318.156 203.68 317.289 201.453C316.422 199.203 315.988 196.812 315.988 194.281V192.875C315.988 189.992 316.398 187.355 317.219 184.965C318.039 182.574 319.211 180.5 320.734 178.742C322.281 176.984 324.156 175.637 326.359 174.699C328.562 173.738 331.047 173.258 333.812 173.258C336.508 173.258 338.898 173.703 340.984 174.594C343.07 175.484 344.816 176.75 346.223 178.391C347.652 180.031 348.73 182 349.457 184.297C350.184 186.57 350.547 189.102 350.547 191.891V196.109H320.312V189.359H340.598V188.586C340.598 187.18 340.34 185.926 339.824 184.824C339.332 183.699 338.582 182.809 337.574 182.152C336.566 181.496 335.277 181.168 333.707 181.168C332.371 181.168 331.223 181.461 330.262 182.047C329.301 182.633 328.516 183.453 327.906 184.508C327.32 185.562 326.875 186.805 326.57 188.234C326.289 189.641 326.148 191.188 326.148 192.875V194.281C326.148 195.805 326.359 197.211 326.781 198.5C327.227 199.789 327.848 200.902 328.645 201.84C329.465 202.777 330.449 203.504 331.598 204.02C332.77 204.535 334.094 204.793 335.57 204.793C337.398 204.793 339.098 204.441 340.668 203.738C342.262 203.012 343.633 201.922 344.781 200.469L349.703 205.812C348.906 206.961 347.816 208.062 346.434 209.117C345.074 210.172 343.434 211.039 341.512 211.719C339.59 212.375 337.398 212.703 334.938 212.703ZM383.348 188.691L375.262 186.758L378.18 160.812H406.938V169.004H386.512L385.246 180.359C385.926 179.961 386.957 179.539 388.34 179.094C389.723 178.625 391.27 178.391 392.98 178.391C395.465 178.391 397.668 178.777 399.59 179.551C401.512 180.324 403.141 181.449 404.477 182.926C405.836 184.402 406.867 186.207 407.57 188.34C408.273 190.473 408.625 192.887 408.625 195.582C408.625 197.855 408.273 200.023 407.57 202.086C406.867 204.125 405.801 205.953 404.371 207.57C402.941 209.164 401.148 210.418 398.992 211.332C396.836 212.246 394.281 212.703 391.328 212.703C389.125 212.703 386.992 212.375 384.93 211.719C382.891 211.062 381.051 210.09 379.41 208.801C377.793 207.512 376.492 205.953 375.508 204.125C374.547 202.273 374.043 200.164 373.996 197.797H384.051C384.191 199.25 384.566 200.504 385.176 201.559C385.809 202.59 386.641 203.387 387.672 203.949C388.703 204.512 389.91 204.793 391.293 204.793C392.582 204.793 393.684 204.547 394.598 204.055C395.512 203.562 396.25 202.883 396.812 202.016C397.375 201.125 397.785 200.094 398.043 198.922C398.324 197.727 398.465 196.438 398.465 195.055C398.465 193.672 398.301 192.418 397.973 191.293C397.645 190.168 397.141 189.195 396.461 188.375C395.781 187.555 394.914 186.922 393.859 186.477C392.828 186.031 391.621 185.809 390.238 185.809C388.363 185.809 386.91 186.102 385.879 186.688C384.871 187.273 384.027 187.941 383.348 188.691ZM415.023 173.363V170.656C415.023 168.711 415.445 166.941 416.289 165.348C417.133 163.754 418.375 162.477 420.016 161.516C421.656 160.555 423.672 160.074 426.062 160.074C428.523 160.074 430.574 160.555 432.215 161.516C433.879 162.477 435.121 163.754 435.941 165.348C436.785 166.941 437.207 168.711 437.207 170.656V173.363C437.207 175.262 436.785 177.008 435.941 178.602C435.121 180.195 433.891 181.473 432.25 182.434C430.609 183.395 428.582 183.875 426.168 183.875C423.73 183.875 421.68 183.395 420.016 182.434C418.375 181.473 417.133 180.195 416.289 178.602C415.445 177.008 415.023 175.262 415.023 173.363ZM421.738 170.656V173.363C421.738 174.184 421.891 174.969 422.195 175.719C422.523 176.445 423.016 177.043 423.672 177.512C424.352 177.957 425.172 178.18 426.133 178.18C427.141 178.18 427.961 177.957 428.594 177.512C429.227 177.043 429.695 176.445 430 175.719C430.305 174.969 430.457 174.184 430.457 173.363V170.656C430.457 169.789 430.293 168.992 429.965 168.266C429.66 167.516 429.18 166.918 428.523 166.473C427.891 166.004 427.07 165.77 426.062 165.77C425.125 165.77 424.328 166.004 423.672 166.473C423.016 166.918 422.523 167.516 422.195 168.266C421.891 168.992 421.738 169.789 421.738 170.656ZM439.492 202.156V199.449C439.492 197.527 439.914 195.77 440.758 194.176C441.625 192.582 442.879 191.305 444.52 190.344C446.184 189.383 448.223 188.902 450.637 188.902C453.074 188.902 455.113 189.383 456.754 190.344C458.395 191.305 459.637 192.582 460.48 194.176C461.324 195.77 461.746 197.527 461.746 199.449V202.156C461.746 204.078 461.324 205.836 460.48 207.43C459.66 209.023 458.43 210.301 456.789 211.262C455.148 212.223 453.121 212.703 450.707 212.703C448.27 212.703 446.219 212.223 444.555 211.262C442.891 210.301 441.625 209.023 440.758 207.43C439.914 205.836 439.492 204.078 439.492 202.156ZM446.242 199.449V202.156C446.242 203 446.43 203.797 446.805 204.547C447.18 205.297 447.695 205.895 448.352 206.34C449.031 206.785 449.816 207.008 450.707 207.008C451.832 207.008 452.711 206.785 453.344 206.34C453.977 205.895 454.41 205.297 454.645 204.547C454.902 203.797 455.031 203 455.031 202.156V199.449C455.031 198.605 454.867 197.82 454.539 197.094C454.211 196.344 453.719 195.746 453.062 195.301C452.43 194.832 451.621 194.598 450.637 194.598C449.652 194.598 448.832 194.832 448.176 195.301C447.543 195.746 447.062 196.344 446.734 197.094C446.406 197.82 446.242 198.605 446.242 199.449ZM453.133 168.125L428.137 208.133L423.215 205.531L448.211 165.523L453.133 168.125ZM509.207 203.703V158H519.402V212H510.227L509.207 203.703ZM485.16 193.438V192.699C485.16 189.793 485.488 187.156 486.145 184.789C486.801 182.398 487.762 180.348 489.027 178.637C490.293 176.926 491.852 175.602 493.703 174.664C495.555 173.727 497.664 173.258 500.031 173.258C502.258 173.258 504.203 173.727 505.867 174.664C507.555 175.602 508.984 176.938 510.156 178.672C511.352 180.383 512.312 182.41 513.039 184.754C513.766 187.074 514.293 189.617 514.621 192.383V194C514.293 196.648 513.766 199.109 513.039 201.383C512.312 203.656 511.352 205.648 510.156 207.359C508.984 209.047 507.555 210.359 505.867 211.297C504.18 212.234 502.211 212.703 499.961 212.703C497.594 212.703 495.484 212.223 493.633 211.262C491.805 210.301 490.258 208.953 488.992 207.219C487.75 205.484 486.801 203.445 486.145 201.102C485.488 198.758 485.16 196.203 485.16 193.438ZM495.285 192.699V193.438C495.285 195.008 495.402 196.473 495.637 197.832C495.895 199.191 496.305 200.398 496.867 201.453C497.453 202.484 498.203 203.293 499.117 203.879C500.055 204.441 501.191 204.723 502.527 204.723C504.262 204.723 505.691 204.336 506.816 203.562C507.941 202.766 508.797 201.676 509.383 200.293C509.992 198.91 510.344 197.316 510.438 195.512V190.906C510.367 189.43 510.156 188.105 509.805 186.934C509.477 185.738 508.984 184.719 508.328 183.875C507.695 183.031 506.898 182.375 505.938 181.906C505 181.438 503.887 181.203 502.598 181.203C501.285 181.203 500.16 181.508 499.223 182.117C498.285 182.703 497.523 183.512 496.938 184.543C496.375 185.574 495.953 186.793 495.672 188.199C495.414 189.582 495.285 191.082 495.285 192.699ZM544.82 212.703C541.867 212.703 539.219 212.234 536.875 211.297C534.531 210.336 532.539 209.012 530.898 207.324C529.281 205.637 528.039 203.68 527.172 201.453C526.305 199.203 525.871 196.812 525.871 194.281V192.875C525.871 189.992 526.281 187.355 527.102 184.965C527.922 182.574 529.094 180.5 530.617 178.742C532.164 176.984 534.039 175.637 536.242 174.699C538.445 173.738 540.93 173.258 543.695 173.258C546.391 173.258 548.781 173.703 550.867 174.594C552.953 175.484 554.699 176.75 556.105 178.391C557.535 180.031 558.613 182 559.34 184.297C560.066 186.57 560.43 189.102 560.43 191.891V196.109H530.195V189.359H550.48V188.586C550.48 187.18 550.223 185.926 549.707 184.824C549.215 183.699 548.465 182.809 547.457 182.152C546.449 181.496 545.16 181.168 543.59 181.168C542.254 181.168 541.105 181.461 540.145 182.047C539.184 182.633 538.398 183.453 537.789 184.508C537.203 185.562 536.758 186.805 536.453 188.234C536.172 189.641 536.031 191.188 536.031 192.875V194.281C536.031 195.805 536.242 197.211 536.664 198.5C537.109 199.789 537.73 200.902 538.527 201.84C539.348 202.777 540.332 203.504 541.48 204.02C542.652 204.535 543.977 204.793 545.453 204.793C547.281 204.793 548.98 204.441 550.551 203.738C552.145 203.012 553.516 201.922 554.664 200.469L559.586 205.812C558.789 206.961 557.699 208.062 556.316 209.117C554.957 210.172 553.316 211.039 551.395 211.719C549.473 212.375 547.281 212.703 544.82 212.703ZM606.59 203.703V158H616.785V212H607.609L606.59 203.703ZM582.543 193.438V192.699C582.543 189.793 582.871 187.156 583.527 184.789C584.184 182.398 585.145 180.348 586.41 178.637C587.676 176.926 589.234 175.602 591.086 174.664C592.938 173.727 595.047 173.258 597.414 173.258C599.641 173.258 601.586 173.727 603.25 174.664C604.938 175.602 606.367 176.938 607.539 178.672C608.734 180.383 609.695 182.41 610.422 184.754C611.148 187.074 611.676 189.617 612.004 192.383V194C611.676 196.648 611.148 199.109 610.422 201.383C609.695 203.656 608.734 205.648 607.539 207.359C606.367 209.047 604.938 210.359 603.25 211.297C601.562 212.234 599.594 212.703 597.344 212.703C594.977 212.703 592.867 212.223 591.016 211.262C589.188 210.301 587.641 208.953 586.375 207.219C585.133 205.484 584.184 203.445 583.527 201.102C582.871 198.758 582.543 196.203 582.543 193.438ZM592.668 192.699V193.438C592.668 195.008 592.785 196.473 593.02 197.832C593.277 199.191 593.688 200.398 594.25 201.453C594.836 202.484 595.586 203.293 596.5 203.879C597.438 204.441 598.574 204.723 599.91 204.723C601.645 204.723 603.074 204.336 604.199 203.562C605.324 202.766 606.18 201.676 606.766 200.293C607.375 198.91 607.727 197.316 607.82 195.512V190.906C607.75 189.43 607.539 188.105 607.188 186.934C606.859 185.738 606.367 184.719 605.711 183.875C605.078 183.031 604.281 182.375 603.32 181.906C602.383 181.438 601.27 181.203 599.98 181.203C598.668 181.203 597.543 181.508 596.605 182.117C595.668 182.703 594.906 183.512 594.32 184.543C593.758 185.574 593.336 186.793 593.055 188.199C592.797 189.582 592.668 191.082 592.668 192.699ZM642.203 212.703C639.25 212.703 636.602 212.234 634.258 211.297C631.914 210.336 629.922 209.012 628.281 207.324C626.664 205.637 625.422 203.68 624.555 201.453C623.688 199.203 623.254 196.812 623.254 194.281V192.875C623.254 189.992 623.664 187.355 624.484 184.965C625.305 182.574 626.477 180.5 628 178.742C629.547 176.984 631.422 175.637 633.625 174.699C635.828 173.738 638.312 173.258 641.078 173.258C643.773 173.258 646.164 173.703 648.25 174.594C650.336 175.484 652.082 176.75 653.488 178.391C654.918 180.031 655.996 182 656.723 184.297C657.449 186.57 657.812 189.102 657.812 191.891V196.109H627.578V189.359H647.863V188.586C647.863 187.18 647.605 185.926 647.09 184.824C646.598 183.699 645.848 182.809 644.84 182.152C643.832 181.496 642.543 181.168 640.973 181.168C639.637 181.168 638.488 181.461 637.527 182.047C636.566 182.633 635.781 183.453 635.172 184.508C634.586 185.562 634.141 186.805 633.836 188.234C633.555 189.641 633.414 191.188 633.414 192.875V194.281C633.414 195.805 633.625 197.211 634.047 198.5C634.492 199.789 635.113 200.902 635.91 201.84C636.73 202.777 637.715 203.504 638.863 204.02C640.035 204.535 641.359 204.793 642.836 204.793C644.664 204.793 646.363 204.441 647.934 203.738C649.527 203.012 650.898 201.922 652.047 200.469L656.969 205.812C656.172 206.961 655.082 208.062 653.699 209.117C652.34 210.172 650.699 211.039 648.777 211.719C646.855 212.375 644.664 212.703 642.203 212.703ZM684.145 201.488C684.145 200.762 683.934 200.105 683.512 199.52C683.09 198.934 682.305 198.395 681.156 197.902C680.031 197.387 678.402 196.918 676.27 196.496C674.348 196.074 672.555 195.547 670.891 194.914C669.25 194.258 667.82 193.473 666.602 192.559C665.406 191.645 664.469 190.566 663.789 189.324C663.109 188.059 662.77 186.617 662.77 185C662.77 183.406 663.109 181.906 663.789 180.5C664.492 179.094 665.488 177.852 666.777 176.773C668.09 175.672 669.684 174.816 671.559 174.207C673.457 173.574 675.59 173.258 677.957 173.258C681.262 173.258 684.098 173.785 686.465 174.84C688.855 175.895 690.684 177.348 691.949 179.199C693.238 181.027 693.883 183.113 693.883 185.457H683.758C683.758 184.473 683.547 183.594 683.125 182.82C682.727 182.023 682.094 181.402 681.227 180.957C680.383 180.488 679.281 180.254 677.922 180.254C676.797 180.254 675.824 180.453 675.004 180.852C674.184 181.227 673.551 181.742 673.105 182.398C672.684 183.031 672.473 183.734 672.473 184.508C672.473 185.094 672.59 185.621 672.824 186.09C673.082 186.535 673.492 186.945 674.055 187.32C674.617 187.695 675.344 188.047 676.234 188.375C677.148 188.68 678.273 188.961 679.609 189.219C682.352 189.781 684.801 190.52 686.957 191.434C689.113 192.324 690.824 193.543 692.09 195.09C693.355 196.613 693.988 198.617 693.988 201.102C693.988 202.789 693.613 204.336 692.863 205.742C692.113 207.148 691.035 208.379 689.629 209.434C688.223 210.465 686.535 211.273 684.566 211.859C682.621 212.422 680.43 212.703 677.992 212.703C674.453 212.703 671.453 212.07 668.992 210.805C666.555 209.539 664.703 207.934 663.438 205.988C662.195 204.02 661.574 202.004 661.574 199.941H671.172C671.219 201.324 671.57 202.438 672.227 203.281C672.906 204.125 673.762 204.734 674.793 205.109C675.848 205.484 676.984 205.672 678.203 205.672C679.516 205.672 680.605 205.496 681.473 205.145C682.34 204.77 682.996 204.277 683.441 203.668C683.91 203.035 684.145 202.309 684.145 201.488ZM716.277 204.793C717.52 204.793 718.621 204.559 719.582 204.09C720.543 203.598 721.293 202.918 721.832 202.051C722.395 201.16 722.688 200.117 722.711 198.922H732.238C732.215 201.594 731.5 203.973 730.094 206.059C728.688 208.121 726.801 209.75 724.434 210.945C722.066 212.117 719.418 212.703 716.488 212.703C713.535 212.703 710.957 212.211 708.754 211.227C706.574 210.242 704.758 208.883 703.305 207.148C701.852 205.391 700.762 203.352 700.035 201.031C699.309 198.688 698.945 196.18 698.945 193.508V192.488C698.945 189.793 699.309 187.285 700.035 184.965C700.762 182.621 701.852 180.582 703.305 178.848C704.758 177.09 706.574 175.719 708.754 174.734C710.934 173.75 713.488 173.258 716.418 173.258C719.535 173.258 722.266 173.855 724.609 175.051C726.977 176.246 728.828 177.957 730.164 180.184C731.523 182.387 732.215 185 732.238 188.023H722.711C722.688 186.758 722.418 185.609 721.902 184.578C721.41 183.547 720.684 182.727 719.723 182.117C718.785 181.484 717.625 181.168 716.242 181.168C714.766 181.168 713.559 181.484 712.621 182.117C711.684 182.727 710.957 183.57 710.441 184.648C709.926 185.703 709.562 186.91 709.352 188.27C709.164 189.605 709.07 191.012 709.07 192.488V193.508C709.07 194.984 709.164 196.402 709.352 197.762C709.539 199.121 709.891 200.328 710.406 201.383C710.945 202.438 711.684 203.27 712.621 203.879C713.559 204.488 714.777 204.793 716.277 204.793ZM736.492 193.367V192.629C736.492 189.84 736.891 187.273 737.688 184.93C738.484 182.562 739.645 180.512 741.168 178.777C742.691 177.043 744.566 175.695 746.793 174.734C749.02 173.75 751.574 173.258 754.457 173.258C757.34 173.258 759.906 173.75 762.156 174.734C764.406 175.695 766.293 177.043 767.816 178.777C769.363 180.512 770.535 182.562 771.332 184.93C772.129 187.273 772.527 189.84 772.527 192.629V193.367C772.527 196.133 772.129 198.699 771.332 201.066C770.535 203.41 769.363 205.461 767.816 207.219C766.293 208.953 764.418 210.301 762.191 211.262C759.965 212.223 757.41 212.703 754.527 212.703C751.645 212.703 749.078 212.223 746.828 211.262C744.602 210.301 742.715 208.953 741.168 207.219C739.645 205.461 738.484 203.41 737.688 201.066C736.891 198.699 736.492 196.133 736.492 193.367ZM746.617 192.629V193.367C746.617 194.961 746.758 196.449 747.039 197.832C747.32 199.215 747.766 200.434 748.375 201.488C749.008 202.52 749.828 203.328 750.836 203.914C751.844 204.5 753.074 204.793 754.527 204.793C755.934 204.793 757.141 204.5 758.148 203.914C759.156 203.328 759.965 202.52 760.574 201.488C761.184 200.434 761.629 199.215 761.91 197.832C762.215 196.449 762.367 194.961 762.367 193.367V192.629C762.367 191.082 762.215 189.629 761.91 188.27C761.629 186.887 761.172 185.668 760.539 184.613C759.93 183.535 759.121 182.691 758.113 182.082C757.105 181.473 755.887 181.168 754.457 181.168C753.027 181.168 751.809 181.473 750.801 182.082C749.816 182.691 749.008 183.535 748.375 184.613C747.766 185.668 747.32 186.887 747.039 188.27C746.758 189.629 746.617 191.082 746.617 192.629ZM788.664 182.082V212H778.539V173.961H788.031L788.664 182.082ZM787.188 191.645H784.445C784.445 188.832 784.809 186.301 785.535 184.051C786.262 181.777 787.281 179.844 788.594 178.25C789.906 176.633 791.465 175.402 793.27 174.559C795.098 173.691 797.137 173.258 799.387 173.258C801.168 173.258 802.797 173.516 804.273 174.031C805.75 174.547 807.016 175.367 808.07 176.492C809.148 177.617 809.969 179.105 810.531 180.957C811.117 182.809 811.41 185.07 811.41 187.742V212H801.215V187.707C801.215 186.02 800.98 184.707 800.512 183.77C800.043 182.832 799.352 182.176 798.438 181.801C797.547 181.402 796.445 181.203 795.133 181.203C793.773 181.203 792.59 181.473 791.582 182.012C790.598 182.551 789.777 183.301 789.121 184.262C788.488 185.199 788.008 186.301 787.68 187.566C787.352 188.832 787.188 190.191 787.188 191.645ZM837.742 173.961V181.133H815.594V173.961H837.742ZM821.078 164.574H831.203V200.539C831.203 201.641 831.344 202.484 831.625 203.07C831.93 203.656 832.375 204.066 832.961 204.301C833.547 204.512 834.285 204.617 835.176 204.617C835.809 204.617 836.371 204.594 836.863 204.547C837.379 204.477 837.812 204.406 838.164 204.336L838.199 211.789C837.332 212.07 836.395 212.293 835.387 212.457C834.379 212.621 833.266 212.703 832.047 212.703C829.82 212.703 827.875 212.34 826.211 211.613C824.57 210.863 823.305 209.668 822.414 208.027C821.523 206.387 821.078 204.23 821.078 201.559V164.574ZM840.977 193.367V192.629C840.977 189.84 841.375 187.273 842.172 184.93C842.969 182.562 844.129 180.512 845.652 178.777C847.176 177.043 849.051 175.695 851.277 174.734C853.504 173.75 856.059 173.258 858.941 173.258C861.824 173.258 864.391 173.75 866.641 174.734C868.891 175.695 870.777 177.043 872.301 178.777C873.848 180.512 875.02 182.562 875.816 184.93C876.613 187.273 877.012 189.84 877.012 192.629V193.367C877.012 196.133 876.613 198.699 875.816 201.066C875.02 203.41 873.848 205.461 872.301 207.219C870.777 208.953 868.902 210.301 866.676 211.262C864.449 212.223 861.895 212.703 859.012 212.703C856.129 212.703 853.562 212.223 851.312 211.262C849.086 210.301 847.199 208.953 845.652 207.219C844.129 205.461 842.969 203.41 842.172 201.066C841.375 198.699 840.977 196.133 840.977 193.367ZM851.102 192.629V193.367C851.102 194.961 851.242 196.449 851.523 197.832C851.805 199.215 852.25 200.434 852.859 201.488C853.492 202.52 854.312 203.328 855.32 203.914C856.328 204.5 857.559 204.793 859.012 204.793C860.418 204.793 861.625 204.5 862.633 203.914C863.641 203.328 864.449 202.52 865.059 201.488C865.668 200.434 866.113 199.215 866.395 197.832C866.699 196.449 866.852 194.961 866.852 193.367V192.629C866.852 191.082 866.699 189.629 866.395 188.27C866.113 186.887 865.656 185.668 865.023 184.613C864.414 183.535 863.605 182.691 862.598 182.082C861.59 181.473 860.371 181.168 858.941 181.168C857.512 181.168 856.293 181.473 855.285 182.082C854.301 182.691 853.492 183.535 852.859 184.613C852.25 185.668 851.805 186.887 851.523 188.27C851.242 189.629 851.102 191.082 851.102 192.629ZM912.59 160.812L911.43 196.355H902.992L901.797 160.812H912.59ZM901.516 207.359C901.516 205.859 902.031 204.617 903.062 203.633C904.117 202.625 905.5 202.121 907.211 202.121C908.945 202.121 910.328 202.625 911.359 203.633C912.391 204.617 912.906 205.859 912.906 207.359C912.906 208.812 912.391 210.043 911.359 211.051C910.328 212.059 908.945 212.562 907.211 212.562C905.5 212.562 904.117 212.059 903.062 211.051C902.031 210.043 901.516 208.812 901.516 207.359Z" fill="#F5F7FA"/>
</svg>
