<svg width="52" height="52" viewBox="0 0 52 52" fill="none" xmlns="http://www.w3.org/2000/svg">
<circle cx="4.02356" cy="47.4765" r="4.02344" transform="rotate(180 4.02356 47.4765)" fill="#F5F7FA" fill-opacity="0.7"/>
<circle cx="18.5176" cy="47.3673" r="4.02344" transform="rotate(-90 18.5176 47.3673)" fill="#F5F7FA" fill-opacity="0.7"/>
<circle cx="4.02356" cy="32.9922" r="4.02344" transform="rotate(180 4.02356 32.9922)" fill="#F5F7FA" fill-opacity="0.7"/>
<circle cx="32.9988" cy="47.6719" r="4.02344" transform="rotate(-90 32.9988 47.6719)" fill="#F5F7FA" fill-opacity="0.7"/>
<circle cx="4.02356" cy="18.5078" r="4.02344" transform="rotate(180 4.02356 18.5078)" fill="#F5F7FA" fill-opacity="0.7"/>
<circle cx="47.48" cy="47.9766" r="4.02344" transform="rotate(-90 47.48 47.9766)" fill="#F5F7FA" fill-opacity="0.7"/>
<circle cx="4.02356" cy="4.02344" r="4.02344" transform="rotate(180 4.02356 4.02344)" fill="#F5F7FA" fill-opacity="0.7"/>
<circle cx="18.5079" cy="18.5078" r="4.02344" transform="rotate(180 18.5079 18.5078)" fill="#F5F7FA" fill-opacity="0.7"/>
<circle cx="32.9923" cy="18.5078" r="4.02344" transform="rotate(180 32.9923 18.5078)" fill="#F5F7FA" fill-opacity="0.7"/>
<circle cx="32.9923" cy="32.9922" r="4.02344" transform="rotate(180 32.9923 32.9922)" fill="#F5F7FA" fill-opacity="0.7"/>
</svg>
