<svg width="234" height="234" viewBox="0 0 234 234" fill="none" xmlns="http://www.w3.org/2000/svg">
<path d="M213.326 55.771H20.6738C9.27406 55.771 0 65.0455 0 76.4447V157.556C0 168.955 9.27406 178.23 20.6738 178.23H213.326C224.725 178.23 234 168.955 234 157.556V76.4447C234 65.0455 224.726 55.771 213.326 55.771ZM218.739 157.556C218.739 160.541 216.311 162.969 213.326 162.969H20.6738C17.6894 162.969 15.2607 160.541 15.2607 157.556V156.424H218.738V157.556H218.739ZM218.739 141.163H15.2607V92.8375H218.738V141.163H218.739ZM218.739 77.5763H15.2607V76.4443C15.2607 73.4599 17.6889 71.0312 20.6738 71.0312H213.326C216.311 71.0312 218.739 73.4594 218.739 76.4443V77.5763Z" fill="#CED3D9"/>
<path d="M52.83 101.675H46.7953L36.674 128.793H44.5801L46.1848 123.484H53.4035L55.0457 128.793H62.9143L52.83 101.675ZM47.2912 118.519L49.8122 109.429L52.2185 118.519H47.2912Z" fill="#CED3D9"/>
<path d="M82.9628 114.891C85.5601 113.744 86.859 111.147 86.859 108.627C86.859 105.189 84.4911 101.675 80.6713 101.675H64.9348V128.793H78.265C83.6123 128.793 88.0043 126.731 88.0043 121.842C88.0048 118.061 86.0569 115.807 82.9628 114.891ZM72.383 108.015H77.6924C78.6471 108.015 79.4876 108.588 79.4876 110.077C79.4876 111.758 78.4561 112.178 77.4629 112.178H72.383V108.015ZM78.265 122.529H72.383V117.984H78.5328C79.6402 117.984 80.4423 118.977 80.4423 120.314C80.4423 121.728 79.4876 122.529 78.265 122.529Z" fill="#CED3D9"/>
<path d="M107.406 119.092C106.642 121.536 104.503 122.415 102.784 122.415C99.3466 122.415 97.3224 119.016 97.3224 115.234C97.3224 111.835 98.9649 108.129 102.708 108.129C104.389 108.129 106.642 108.855 107.521 111.491L113.211 107.442C111.493 103.89 107.673 101.522 102.861 101.522C94.6104 101.522 89.7599 108.397 89.7599 115.004C89.7594 121.956 95.0688 129.022 102.631 129.022C106.947 129.022 111.951 126.73 113.479 122.72L107.406 119.092Z" fill="#CED3D9"/>
<path d="M127.8 115.006H115.845V121.5H127.8V115.006Z" fill="#CED3D9"/>
<path d="M145.023 122.3V101.484H137.613C137.536 101.637 134.061 105.112 131.311 105.112V111.758C133.374 111.758 136.773 109.658 137.614 108.473V122.3H132.19V128.794H149.874V122.3H145.023Z" fill="#CED3D9"/>
<path d="M162.973 122.3C162.973 120.658 165.455 119.435 167.632 118.175C171.032 116.189 173.018 114.279 173.018 110.078C173.018 104.501 169.466 101.369 163.279 101.369C158.313 101.369 154.188 103.394 152.164 105.686L156.633 110.536C158.084 109.123 160.261 107.787 162.247 107.787C163.546 107.787 164.73 108.359 164.73 110.193C164.73 112.981 161.98 114.318 158.809 115.807C153.004 118.557 152.163 121.766 152.163 128.794H173.056V122.3H162.973V122.3Z" fill="#CED3D9"/>
<path d="M190.357 114.279C193.222 113.706 195.285 111.682 195.285 108.741C195.285 104.539 191.083 101.331 185.43 101.331C181.992 101.331 177.906 102.515 175.881 104.769L180.465 110.154C181.152 109.276 182.603 107.671 185.468 107.671C185.888 107.671 187.493 107.709 187.493 109.122C187.493 111.032 184.476 111.682 181.114 111.682H179.892V117.678H181.152C185.66 117.678 188.18 118.29 188.18 120.276C188.18 121.88 186.5 122.491 184.781 122.491C181.305 122.491 180.236 119.97 179.93 119.665L176.226 124.706C177.982 127.762 180.885 129.137 184.934 129.137C190.014 129.137 195.743 126.96 195.743 121.269C195.743 117.87 193.68 114.814 190.357 114.279Z" fill="#CED3D9"/>
</svg>
