<svg width="234" height="124" viewBox="0 0 234 124" fill="none" xmlns="http://www.w3.org/2000/svg">
<path d="M213.326 0.770958H20.6738C9.27406 0.770958 0 10.0455 0 21.4447V102.556C0 113.955 9.27406 123.23 20.6738 123.23H213.326C224.725 123.23 234 113.955 234 102.556V21.4447C234 10.0455 224.726 0.770958 213.326 0.770958ZM218.739 102.556C218.739 105.541 216.311 107.969 213.326 107.969H20.6738C17.6894 107.969 15.2607 105.541 15.2607 102.556V101.424H218.738V102.556H218.739ZM218.739 86.1634H15.2607V37.8375H218.738V86.1634H218.739ZM218.739 22.5763H15.2607V21.4443C15.2607 18.4599 17.6889 16.0312 20.6738 16.0312H213.326C216.311 16.0312 218.739 18.4594 218.739 21.4443V22.5763Z" fill="#CED3D9"/>
<path d="M52.83 46.6746H46.7953L36.674 73.793H44.5801L46.1848 68.4837H53.4035L55.0457 73.793H62.9143L52.83 46.6746ZM47.2912 63.5189L49.8122 54.4286L52.2185 63.5189H47.2912Z" fill="#CED3D9"/>
<path d="M82.9628 59.8906C85.5601 58.7443 86.859 56.147 86.859 53.6265C86.859 50.1887 84.4911 46.6751 80.6713 46.6751H64.9348V73.7934H78.265C83.6123 73.793 88.0043 71.7309 88.0043 66.8415C88.0048 63.061 86.0569 60.8069 82.9628 59.8906ZM72.383 53.015H77.6924C78.6471 53.015 79.4876 53.5877 79.4876 55.0771C79.4876 56.7576 78.4561 57.1781 77.4629 57.1781H72.383V53.015ZM78.265 67.5294H72.383V62.9842H78.5328C79.6402 62.9842 80.4423 63.9773 80.4423 65.3142C80.4423 66.7278 79.4876 67.5294 78.265 67.5294Z" fill="#CED3D9"/>
<path d="M107.406 64.0921C106.642 66.5363 104.503 67.4147 102.784 67.4147C99.3466 67.4147 97.3224 64.0157 97.3224 60.2338C97.3224 56.8349 98.9649 53.1293 102.708 53.1293C104.389 53.1293 106.642 53.855 107.521 56.4907L113.211 52.4419C111.493 48.8899 107.673 46.5215 102.861 46.5215C94.6104 46.5215 89.7599 53.3971 89.7599 60.0044C89.7594 66.9558 95.0688 74.022 102.631 74.022C106.947 74.022 111.951 71.7304 113.479 67.72L107.406 64.0921Z" fill="#CED3D9"/>
<path d="M127.8 60.0062H115.845V66.4997H127.8V60.0062Z" fill="#CED3D9"/>
<path d="M145.023 67.3004V46.484H137.613C137.536 46.6371 134.061 50.1124 131.311 50.1124V56.7581C133.374 56.7581 136.773 54.6576 137.614 53.4734V67.3004H132.19V73.7939H149.874V67.3004H145.023Z" fill="#CED3D9"/>
<path d="M162.973 67.2999C162.973 65.6578 165.455 64.4353 167.632 63.1748C171.032 61.189 173.018 59.2786 173.018 55.0776C173.018 49.5014 169.466 46.3693 163.279 46.3693C158.313 46.3693 154.188 48.394 152.164 50.6855L156.633 55.5365C158.084 54.1233 160.261 52.7865 162.247 52.7865C163.546 52.7865 164.73 53.3592 164.73 55.1928C164.73 57.9811 161.98 59.3179 158.809 60.8074C153.004 63.5573 152.163 66.7657 152.163 73.7939H173.056V67.3004H162.973V67.2999Z" fill="#CED3D9"/>
<path d="M190.357 59.2791C193.222 58.706 195.285 56.6818 195.285 53.7408C195.285 49.5388 191.083 46.3309 185.43 46.3309C181.992 46.3309 177.906 47.5151 175.881 49.7687L180.465 55.1544C181.152 54.2755 182.603 52.6709 185.468 52.6709C185.888 52.6709 187.493 52.7088 187.493 54.1224C187.493 56.0319 184.476 56.6818 181.114 56.6818H179.892V62.6785H181.152C185.66 62.6785 188.18 63.2895 188.18 65.2758C188.18 66.8804 186.5 67.491 184.781 67.491C181.305 67.491 180.236 64.97 179.93 64.6647L176.226 69.7062C177.982 72.7619 180.885 74.1371 184.934 74.1371C190.014 74.1371 195.743 71.9598 195.743 66.2694C195.743 62.8695 193.68 59.8138 190.357 59.2791Z" fill="#CED3D9"/>
</svg>
