<svg width="58" height="58" viewBox="0 0 58 58" fill="none" xmlns="http://www.w3.org/2000/svg">
<path d="M52.8756 13.8236H5.12427C2.2987 13.8236 0 16.1224 0 18.9478V39.0523C0 41.8778 2.2987 44.1765 5.12427 44.1765H52.8757C55.7012 44.1765 58 41.8778 58 39.0523V18.9478C57.9999 16.1224 55.7012 13.8236 52.8756 13.8236ZM54.2173 39.0524C54.2173 39.7921 53.6155 40.3941 52.8756 40.3941H5.12427C4.38454 40.3941 3.78257 39.7922 3.78257 39.0524V38.7718H54.2172V39.0524H54.2173ZM54.2173 34.9892H3.78257V23.011H54.2172V34.9892H54.2173ZM54.2174 19.2283H3.78257V18.9477C3.78257 18.208 4.38443 17.606 5.12427 17.606H52.8757C53.6155 17.606 54.2174 18.2079 54.2174 18.9477V19.2283Z" fill="#090A0F"/>
<path d="M13.0946 25.2014H11.5988L9.09009 31.923H11.0497L11.4475 30.6071H13.2367L13.6438 31.923H15.5941L13.0946 25.2014ZM11.7217 29.3765L12.3466 27.1233L12.943 29.3765H11.7217Z" fill="#090A0F"/>
<path d="M20.5635 28.4771C21.2072 28.193 21.5292 27.5493 21.5292 26.9245C21.5292 26.0724 20.9423 25.2015 19.9955 25.2015H16.095V31.9232H19.399C20.7244 31.923 21.8131 31.4119 21.8131 30.2C21.8132 29.263 21.3304 28.7043 20.5635 28.4771ZM17.9411 26.773H19.2571C19.4937 26.773 19.7021 26.9149 19.7021 27.2841C19.7021 27.7006 19.4464 27.8048 19.2002 27.8048H17.9411V26.773ZM19.399 30.3705H17.9411V29.2439H19.4654C19.7399 29.2439 19.9387 29.4901 19.9387 29.8215C19.9387 30.1718 19.7021 30.3705 19.399 30.3705Z" fill="#090A0F"/>
<path d="M26.6218 29.5185C26.4324 30.1244 25.9024 30.3421 25.4763 30.3421C24.6242 30.3421 24.1225 29.4996 24.1225 28.5622C24.1225 27.7198 24.5296 26.8013 25.4574 26.8013C25.8739 26.8013 26.4325 26.9812 26.6503 27.6345L28.0608 26.6309C27.6348 25.7505 26.6881 25.1635 25.4952 25.1635C23.4503 25.1635 22.248 26.8677 22.248 28.5054C22.2479 30.2284 23.5639 31.9798 25.4384 31.9798C26.5082 31.9798 27.7484 31.4118 28.1271 30.4178L26.6218 29.5185Z" fill="#090A0F"/>
<path d="M31.6769 28.5058H28.7136V30.1153H31.6769V28.5058Z" fill="#090A0F"/>
<path d="M35.9459 30.3138V25.1542H34.1092C34.0902 25.1921 33.2287 26.0535 32.5471 26.0535V27.7007C33.0585 27.7007 33.9011 27.1801 34.1094 26.8866V30.3138H32.7651V31.9233H37.1484V30.3138H35.9459Z" fill="#090A0F"/>
<path d="M40.3949 30.3137C40.3949 29.9066 41.0102 29.6036 41.5498 29.2912C42.3924 28.799 42.8847 28.3255 42.8847 27.2842C42.8847 25.902 42.0044 25.1257 40.4707 25.1257C39.24 25.1257 38.2175 25.6276 37.7157 26.1956L38.8234 27.3979C39.1831 27.0477 39.7227 26.7163 40.215 26.7163C40.537 26.7163 40.8304 26.8583 40.8304 27.3127C40.8305 28.0039 40.1489 28.3352 39.3629 28.7044C37.9239 29.386 37.7156 30.1812 37.7156 31.9233H42.8942V30.3138H40.3949V30.3137Z" fill="#090A0F"/>
<path d="M47.1825 28.3256C47.8927 28.1835 48.4038 27.6818 48.4038 26.9528C48.4038 25.9113 47.3624 25.1162 45.9613 25.1162C45.1092 25.1162 44.0962 25.4097 43.5945 25.9683L44.7306 27.3032C44.9008 27.0854 45.2606 26.6877 45.9707 26.6877C46.0748 26.6877 46.4725 26.6971 46.4725 27.0474C46.4725 27.5207 45.7247 27.6818 44.8916 27.6818H44.5885V29.1682H44.901C46.0181 29.1682 46.6429 29.3196 46.6429 29.8119C46.6429 30.2097 46.2263 30.361 45.8004 30.361C44.9389 30.361 44.6738 29.7362 44.598 29.6605L43.6798 30.9101C44.1152 31.6675 44.8347 32.0084 45.8384 32.0084C47.0975 32.0084 48.5176 31.4687 48.5176 30.0582C48.5173 29.2155 48.0062 28.4581 47.1825 28.3256Z" fill="#090A0F"/>
</svg>
