<svg width="171" height="171" viewBox="0 0 171 171" fill="none" xmlns="http://www.w3.org/2000/svg">
<g clip-path="url(#clip0_222_112)">
<path d="M166.303 143.632L137.81 115.139C145.278 103.498 149.625 89.6681 149.625 74.8125C149.625 33.4946 116.13 0 74.8125 0C33.4946 0 0 33.4946 0 74.8125C0 116.13 33.4946 149.625 74.8125 149.625C89.6681 149.625 103.498 145.278 115.139 137.81L143.632 166.303C149.895 172.566 160.043 172.566 166.303 166.303C172.563 160.04 172.566 149.895 166.303 143.632ZM74.8125 144.281C36.447 144.281 5.34375 113.178 5.34375 74.8125C5.34375 36.447 36.447 5.34375 74.8125 5.34375C113.178 5.34375 144.281 36.447 144.281 74.8125C144.281 113.178 113.178 144.281 74.8125 144.281ZM162.525 162.525C158.351 166.698 151.583 166.698 147.413 162.525L119.617 134.729C125.348 130.438 130.441 125.343 134.732 119.617L162.525 147.41C166.701 151.581 166.701 158.351 162.525 162.525Z" fill="#0B0C12"/>
<path d="M74.8125 10.6875C39.3968 10.6875 10.6875 39.3968 10.6875 74.8125C10.6875 110.228 39.3968 138.938 74.8125 138.938C110.228 138.938 138.938 110.228 138.938 74.8125C138.938 39.3968 110.228 10.6875 74.8125 10.6875ZM74.8125 133.594C42.3492 133.594 16.0312 107.276 16.0312 74.8125C16.0312 42.3492 42.3492 16.0312 74.8125 16.0312C107.276 16.0312 133.594 42.3492 133.594 74.8125C133.594 107.276 107.276 133.594 74.8125 133.594Z" fill="#0B0C12"/>
<path d="M74.8125 29.3906C73.335 29.3906 72.1406 30.585 72.1406 32.0625C72.1406 33.54 73.335 34.7344 74.8125 34.7344C96.9463 34.7344 114.891 52.6787 114.891 74.8125C114.891 76.29 116.085 77.4844 117.562 77.4844C119.04 77.4844 120.234 76.29 120.234 74.8125C120.234 49.7263 99.8987 29.3906 74.8125 29.3906Z" fill="#0B0C12"/>
</g>
<defs>
<clipPath id="clip0_222_112">
<rect width="171" height="171" fill="white"/>
</clipPath>
</defs>
</svg>
