<svg width="36" height="36" viewBox="0 0 36 36" fill="none" xmlns="http://www.w3.org/2000/svg">
<path d="M21.9424 3.75785C16.9319 -1.25262 8.78034 -1.25262 3.76987 3.75785C-1.24067 8.76832 -1.24067 16.9208 3.76987 21.9312C8.78034 26.9417 16.9319 26.9417 21.9424 21.9312C26.9529 16.9208 26.9529 8.76832 21.9424 3.75785ZM20.1582 20.1471C16.1257 24.1788 9.58654 24.1788 5.55405 20.1463C1.52155 16.1138 1.52155 9.57459 5.55405 5.54288C9.58654 1.51038 16.125 1.51038 20.1575 5.54288C24.19 9.57537 24.1907 16.1138 20.1582 20.1471Z" fill="black"/>
<path d="M7.16564 7.91234C5.10147 10.5649 4.92963 14.2145 6.65088 17.032C6.78285 17.2491 7.06586 17.3166 7.28214 17.1854C7.49765 17.0527 7.56599 16.7704 7.43402 16.5542C5.91063 14.0612 6.0625 10.821 7.88887 8.47695C8.04539 8.27747 8.00931 7.98912 7.80906 7.8333C7.60973 7.67763 7.32131 7.71293 7.16564 7.91234Z" fill="black"/>
<path d="M35.054 31.4804L25.7279 22.3961C25.2178 21.899 24.4032 21.9052 23.8992 22.4083L22.4203 23.8872C21.9172 24.3903 21.9117 25.205 22.4096 25.7143L31.4933 35.0403C32.502 36.2584 33.9923 36.3305 35.1437 35.1784C36.2965 34.0278 36.2713 32.4892 35.054 31.4804Z" fill="black"/>
</svg>
